<?xml version="1.0" encoding="utf-8"?>
<!-- Generator: Adobe Illustrator 27.5.0, SVG Export Plug-In . SVG Version: 6.00 Build 0)  -->
<svg version="1.1" xmlns="http://www.w3.org/2000/svg" xmlns:xlink="http://www.w3.org/1999/xlink" x="0px" y="0px"
	 viewBox="0 0 500 500" style="enable-background:new 0 0 500 500;" xml:space="preserve">
<g id="BACKGROUND">
	<rect x="1.529" style="fill:#FAECEE;" width="498.471" height="498.471"/>
</g>
<g id="OBJECTS">
	<g>
		<defs>
			<rect id="SVGID_1_" x="1.529" width="498.471" height="498.471"/>
		</defs>
		<clipPath id="SVGID_00000017497851609677318950000001216366346762415009_">
			<use xlink:href="#SVGID_1_"  style="overflow:visible;"/>
		</clipPath>
		<g style="clip-path:url(#SVGID_00000017497851609677318950000001216366346762415009_);">
			<g>
				<path style="fill:#09116D;" d="M442.477,388.454l166.964-52.882c2.67-0.846,4.198-4.326,3.396-7.734l-25.085-106.582
					c-0.802-3.408-3.643-5.505-6.313-4.659L414.476,269.48c-2.67,0.846-4.198,4.326-3.396,7.734l25.085,106.582
					C436.967,387.203,439.808,389.3,442.477,388.454z"/>
				<g>
					<defs>
						<path id="SVGID_00000103962079588555881140000016932887415814195109_" d="M449.192,388.47l166.964-52.882
							c2.67-0.846,4.198-4.326,3.396-7.734l-25.084-106.582c-0.802-3.408-3.643-5.505-6.313-4.659L421.19,269.495
							c-2.67,0.846-4.198,4.326-3.396,7.734l25.085,106.582C443.681,387.219,446.522,389.315,449.192,388.47z"/>
					</defs>
					<clipPath id="SVGID_00000033333879984153835770000011710172437289040810_">
						<use xlink:href="#SVGID_00000103962079588555881140000016932887415814195109_"  style="overflow:visible;"/>
					</clipPath>
					<polygon style="clip-path:url(#SVGID_00000033333879984153835770000011710172437289040810_);fill:#5583FB;" points="
						399.32,268.173 601.524,202.393 634.056,337.589 431.852,403.369 					"/>
					<g style="clip-path:url(#SVGID_00000033333879984153835770000011710172437289040810_);">
						<polygon style="fill:#FFFFFF;" points="604.999,199.318 404.9,409.953 416.841,427.652 616.939,217.017 						"/>
						<polygon style="fill:#E2737E;" points="608.661,204.747 408.563,415.382 413.178,422.223 613.277,211.588 						"/>
						<polygon style="fill:#FFFFFF;" points="660.152,329.065 390.975,250.558 387.73,272.651 656.908,351.158 						"/>
						<polygon style="fill:#E2737E;" points="659.157,335.842 389.979,257.335 388.725,265.874 657.903,344.381 						"/>
						<polygon style="fill:#FFFFFF;" points="516.578,212.924 488.925,221.92 530.11,393.081 557.763,384.085 						"/>
						<polygon style="fill:#FFFFFF;" points="638.319,278.166 630.413,245.311 403.586,319.102 411.492,351.957 						"/>
						<polygon style="fill:#E2737E;" points="636.712,270.319 632.369,252.27 405.543,326.06 409.887,344.109 						"/>
						<polygon style="fill:#E2737E;" points="532.417,373.153 548.014,368.079 513.159,223.226 497.562,228.3 						"/>
					</g>
				</g>
			</g>
			<g>
				
					<ellipse transform="matrix(0.4002 -0.9164 0.9164 0.4002 -311.7258 174.4528)" style="fill:#E2737E;" cx="-22.598" cy="325.355" rx="41.485" ry="41.485"/>
				<g>
					<defs>
						
							<ellipse id="SVGID_00000047774428831573313830000017766943514920782722_" transform="matrix(0.4002 -0.9164 0.9164 0.4002 -311.7258 174.4528)" cx="-22.598" cy="325.355" rx="41.485" ry="41.485"/>
					</defs>
					<clipPath id="SVGID_00000025421596149708161050000000476557722893613212_">
						<use xlink:href="#SVGID_00000047774428831573313830000017766943514920782722_"  style="overflow:visible;"/>
					</clipPath>
					<path style="clip-path:url(#SVGID_00000025421596149708161050000000476557722893613212_);fill:#09116D;" d="M26.832,351.482
						c-14.305,1.753-27.368-8.46-29.121-22.765c-1.753-14.305,8.46-27.369,22.764-29.121c14.305-1.753,27.369,8.46,29.121,22.765
						C51.349,336.666,41.137,349.73,26.832,351.482z M21.103,304.722C9.624,306.128,1.43,316.611,2.836,328.09
						c1.406,11.479,11.889,19.674,23.368,18.267c11.479-1.406,19.674-11.889,18.267-23.368
						C43.065,311.51,32.582,303.315,21.103,304.722z"/>
					<path style="clip-path:url(#SVGID_00000025421596149708161050000000476557722893613212_);fill:#09116D;" d="M-39.306,283.659
						c0.868,7.083,9.188,11.891,18.583,10.74c9.395-1.151,16.308-7.826,15.441-14.908c-0.868-7.083-9.187-11.891-18.583-10.74
						S-40.174,276.576-39.306,283.659z"/>
				</g>
				
					<ellipse transform="matrix(0.5656 -0.8247 0.8247 0.5656 -235.2118 108.3629)" style="fill:#5583FB;" cx="-14.74" cy="277.461" rx="17.139" ry="17.139"/>
				<path style="fill:#A7BDFD;" d="M27.136,346.967c-14.305,1.752-27.368-8.46-29.121-22.765
					c-1.752-14.305,8.46-27.369,22.764-29.121c14.305-1.753,27.369,8.46,29.121,22.765
					C51.653,332.151,41.441,345.215,27.136,346.967z M21.407,300.207C9.928,301.613,1.734,312.095,3.14,323.574
					c1.406,11.479,11.889,19.674,23.368,18.267c11.479-1.406,19.674-11.889,18.267-23.368
					C43.369,306.995,32.886,298.8,21.407,300.207z"/>
				<g>
					<defs>
						<path id="SVGID_00000080890979216282089390000012800727976461811131_" d="M27.136,346.967
							c-14.305,1.752-27.368-8.46-29.121-22.765c-1.752-14.305,8.46-27.369,22.764-29.121c14.305-1.753,27.369,8.46,29.121,22.765
							C51.653,332.151,41.441,345.215,27.136,346.967z M21.407,300.207C9.928,301.613,1.734,312.095,3.14,323.574
							c1.406,11.479,11.889,19.674,23.368,18.267c11.479-1.406,19.674-11.889,18.267-23.368
							C43.369,306.995,32.886,298.8,21.407,300.207z"/>
					</defs>
					<use xlink:href="#SVGID_00000080890979216282089390000012800727976461811131_"  style="overflow:visible;fill:#A7BDFD;"/>
					<clipPath id="SVGID_00000182523277968827383200000009008528146604659903_">
						<use xlink:href="#SVGID_00000080890979216282089390000012800727976461811131_"  style="overflow:visible;"/>
					</clipPath>
				</g>
			</g>
			<g>
				<path style="fill:#5583FB;" d="M436.391,490.21c-2.722,0-5.462-0.216-8.202-0.651c-13.604-2.162-25.55-9.492-33.641-20.639
					l20.655-14.99c4.086,5.631,10.121,9.333,16.991,10.426c6.872,1.087,13.755-0.558,19.385-4.644
					c5.631-4.087,9.333-10.122,10.426-16.992c1.092-6.87-0.557-13.754-4.643-19.384l20.654-14.99
					c8.09,11.147,11.355,24.778,9.193,38.38c-2.162,13.603-9.492,25.55-20.639,33.64C457.668,486.825,447.181,490.21,436.391,490.21
					z"/>
				<g>
					<defs>
						<path id="SVGID_00000148629857085708299060000006058324803167928477_" d="M436.391,490.21c-2.722,0-5.462-0.216-8.202-0.651
							c-13.604-2.162-25.55-9.492-33.641-20.639l20.655-14.99c4.086,5.631,10.121,9.333,16.991,10.426
							c6.872,1.087,13.755-0.558,19.385-4.644c5.631-4.087,9.333-10.122,10.426-16.992c1.092-6.87-0.557-13.754-4.643-19.384
							l20.654-14.99c8.09,11.147,11.355,24.778,9.193,38.38c-2.162,13.603-9.492,25.55-20.639,33.64
							C457.668,486.825,447.181,490.21,436.391,490.21z"/>
					</defs>
					<clipPath id="SVGID_00000032611695625443042780000013462818733068062348_">
						<use xlink:href="#SVGID_00000148629857085708299060000006058324803167928477_"  style="overflow:visible;"/>
					</clipPath>
					
						<ellipse transform="matrix(0.9729 -0.2313 0.2313 0.9729 -100.6909 119.3334)" style="clip-path:url(#SVGID_00000032611695625443042780000013462818733068062348_);fill:#222848;" cx="458.566" cy="489.075" rx="15.71" ry="15.71"/>
				</g>
				<circle style="fill:#E2737E;" cx="467.621" cy="485.076" r="17.214"/>
			</g>
			<g>
				
					<ellipse transform="matrix(0.2796 -0.9601 0.9601 0.2796 32.4015 43.1841)" style="fill:#A7BDFD;" cx="44.978" cy="0" rx="37.973" ry="37.973"/>
				<g>
					<defs>
						
							<ellipse id="SVGID_00000076579103376530249470000008445255222497238184_" transform="matrix(0.2796 -0.9601 0.9601 0.2796 32.4015 43.1841)" cx="44.978" cy="0" rx="37.973" ry="37.973"/>
					</defs>
					<clipPath id="SVGID_00000007405039355264035200000010340308397344968093_">
						<use xlink:href="#SVGID_00000076579103376530249470000008445255222497238184_"  style="overflow:visible;"/>
					</clipPath>
					
						<ellipse transform="matrix(0.8907 -0.4545 0.4545 0.8907 -3.2855 38.3527)" style="clip-path:url(#SVGID_00000007405039355264035200000010340308397344968093_);fill:#222848;" cx="78.123" cy="26.01" rx="16.842" ry="16.842"/>
				</g>
				
					<ellipse transform="matrix(0.6449 -0.7643 0.7643 0.6449 13.1875 71.7144)" style="fill:#E2737E;" cx="83.761" cy="21.667" rx="15.688" ry="15.688"/>
				
					<ellipse transform="matrix(0.8551 -0.5185 0.5185 0.8551 -172.5386 167.2608)" style="fill:#EFC4D9;" cx="212.955" cy="392.297" rx="39.367" ry="39.367"/>
				
					<ellipse transform="matrix(0.5056 -0.8628 0.8628 0.5056 108.1186 227.6788)" style="fill:#EFC4D9;" cx="252.724" cy="19.499" rx="39.367" ry="39.367"/>
			</g>
			<g>
				<path style="fill:#09116D;stroke:#09116D;stroke-width:0.75;stroke-miterlimit:10;" d="M206.03,243.983L82.655,281.275
					c-2.654,0.802-5.455-0.699-6.257-3.353L24.902,107.554c-0.802-2.654,0.699-5.455,3.352-6.257l131.868-39.859
					c5.191-1.569,10.671,1.367,12.24,6.558l43.55,144.08L206.03,243.983z"/>
				<path style="fill:#FAECEE;stroke:#09116D;stroke-width:0.75;stroke-miterlimit:10;" d="M206.768,238.748L85.072,275.533
					c-3.581,1.082-7.361-0.943-8.443-4.524L26.147,103.998c-1.082-3.581,0.943-7.361,4.524-8.443l133.104-40.233
					c3.581-1.082,7.361,0.943,8.443,4.524l44.432,146.995L206.768,238.748z"/>
				
					<line style="fill:none;stroke:#09116D;stroke-width:0.75;stroke-miterlimit:10;" x1="49.558" y1="131.06" x2="163.905" y2="96.497"/>
				
					<line style="fill:none;stroke:#09116D;stroke-width:0.75;stroke-miterlimit:10;" x1="51.85" y1="138.645" x2="166.198" y2="104.082"/>
				
					<line style="fill:none;stroke:#09116D;stroke-width:0.75;stroke-miterlimit:10;" x1="44.608" y1="114.482" x2="158.956" y2="79.919"/>
				
					<line style="fill:none;stroke:#09116D;stroke-width:0.75;stroke-miterlimit:10;" x1="46.901" y1="122.067" x2="161.249" y2="87.504"/>
				
					<line style="fill:none;stroke:#09116D;stroke-width:0.75;stroke-miterlimit:10;" x1="63.314" y1="176.571" x2="177.538" y2="142.046"/>
				
					<line style="fill:none;stroke:#09116D;stroke-width:0.75;stroke-miterlimit:10;" x1="66.826" y1="188.191" x2="181.05" y2="153.665"/>
				
					<line style="fill:none;stroke:#09116D;stroke-width:0.75;stroke-miterlimit:10;" x1="70.339" y1="199.811" x2="184.563" y2="165.285"/>
				
					<line style="fill:none;stroke:#09116D;stroke-width:0.75;stroke-miterlimit:10;" x1="73.851" y1="211.431" x2="188.075" y2="176.905"/>
				
					<line style="fill:none;stroke:#09116D;stroke-width:0.75;stroke-miterlimit:10;" x1="77.363" y1="223.051" x2="191.587" y2="188.525"/>
				
					<line style="fill:none;stroke:#09116D;stroke-width:0.75;stroke-miterlimit:10;" x1="80.875" y1="234.671" x2="195.099" y2="200.145"/>
				
					<line style="fill:none;stroke:#09116D;stroke-width:0.75;stroke-miterlimit:10;" x1="84.388" y1="246.291" x2="172.234" y2="219.738"/>
				
					<line style="fill:none;stroke:#09116D;stroke-width:0.75;stroke-miterlimit:10;" x1="87.9" y1="257.91" x2="175.746" y2="231.358"/>
				<path style="fill:none;stroke:#09116D;stroke-width:0.75;stroke-miterlimit:10;" d="M212.06,207.171l-8.271,2.5
					c-3.766,1.138-5.896,5.114-4.758,8.88l4.964,16.421"/>
			</g>
			<g>
				<path style="fill:#09116D;stroke:#09116D;stroke-width:0.75;stroke-miterlimit:10;" d="M448.516,94.043L324.236,59.89
					c-2.673-0.735-4.245-3.497-3.51-6.17l47.163-171.619c0.735-2.673,3.497-4.245,6.17-3.51l132.835,36.505
					c5.229,1.437,8.303,6.841,6.866,12.07L473.875,72.302L448.516,94.043z"/>
				<path style="fill:#A7BDFD;stroke:#09116D;stroke-width:0.75;stroke-miterlimit:10;" d="M451.929,90.006L329.34,56.317
					c-3.607-0.991-5.728-4.719-4.736-8.326l46.234-168.237c0.991-3.607,4.719-5.728,8.326-4.736l134.081,36.847
					c3.607,0.991,5.727,4.719,4.736,8.326L477.288,68.265L451.929,90.006z"/>
				
					<line style="fill:none;stroke:#09116D;stroke-width:0.75;stroke-miterlimit:10;" x1="376.236" y1="-84.872" x2="491.422" y2="-53.217"/>
				
					<line style="fill:none;stroke:#09116D;stroke-width:0.75;stroke-miterlimit:10;" x1="374.136" y1="-77.231" x2="489.323" y2="-45.577"/>
				
					<line style="fill:none;stroke:#09116D;stroke-width:0.75;stroke-miterlimit:10;" x1="380.877" y1="-101.539" x2="496.064" y2="-69.885"/>
				
					<line style="fill:none;stroke:#09116D;stroke-width:0.75;stroke-miterlimit:10;" x1="378.777" y1="-93.898" x2="493.964" y2="-62.244"/>
				
					<line style="fill:none;stroke:#09116D;stroke-width:0.75;stroke-miterlimit:10;" x1="363.637" y1="-39.027" x2="478.699" y2="-7.406"/>
				
					<line style="fill:none;stroke:#09116D;stroke-width:0.75;stroke-miterlimit:10;" x1="360.42" y1="-27.322" x2="475.483" y2="4.299"/>
				
					<line style="fill:none;stroke:#09116D;stroke-width:0.75;stroke-miterlimit:10;" x1="357.204" y1="-15.617" x2="472.266" y2="16.004"/>
				
					<line style="fill:none;stroke:#09116D;stroke-width:0.75;stroke-miterlimit:10;" x1="353.987" y1="-3.912" x2="469.049" y2="27.709"/>
				
					<line style="fill:none;stroke:#09116D;stroke-width:0.75;stroke-miterlimit:10;" x1="350.77" y1="7.793" x2="465.832" y2="39.414"/>
				
					<line style="fill:none;stroke:#09116D;stroke-width:0.75;stroke-miterlimit:10;" x1="347.553" y1="19.499" x2="462.616" y2="51.119"/>
				
					<line style="fill:none;stroke:#09116D;stroke-width:0.75;stroke-miterlimit:10;" x1="344.337" y1="31.204" x2="432.828" y2="55.522"/>
				
					<line style="fill:none;stroke:#09116D;stroke-width:0.75;stroke-miterlimit:10;" x1="341.12" y1="42.909" x2="429.611" y2="67.227"/>
				<path style="fill:none;stroke:#09116D;stroke-width:0.75;stroke-miterlimit:10;" d="M473.227,66.1l-8.332-2.29
					c-3.793-1.042-7.714,1.188-8.756,4.981l-4.546,16.542"/>
			</g>
			<g>
				<path style="fill:#09116D;stroke:#09116D;stroke-width:0.75;stroke-miterlimit:10;" d="M243.918,257.023l-125.85,27.82
					c-2.707,0.598-5.386-1.111-5.985-3.818L73.667,107.24c-0.598-2.707,1.111-5.386,3.818-5.985L211.997,71.52
					c5.295-1.171,10.536,2.173,11.707,7.468l32.489,146.97L243.918,257.023z"/>
				<path style="fill:#FFFFFF;stroke:#09116D;stroke-width:0.75;stroke-miterlimit:10;" d="M245.051,251.859l-124.137,27.442
					c-3.652,0.807-7.268-1.499-8.076-5.152l-37.66-170.361c-0.807-3.653,1.499-7.268,5.152-8.076l135.774-30.014
					c3.653-0.807,7.268,1.499,8.076,5.152l33.146,149.944L245.051,251.859z"/>
				<path style="fill:none;stroke:#09116D;stroke-width:0.75;stroke-linecap:round;stroke-miterlimit:10;" d="M213.542,109.621
					c-0.69-4.575-2.496-9.05-5.476-13.005c-9.57-12.703-27.626-15.244-40.33-5.674c-12.703,9.57-15.244,27.626-5.674,40.33
					c9.57,12.704,27.626,15.244,40.33,5.674c2.932-2.209,5.323-4.869,7.148-7.812"/>
				
					<line style="fill:none;stroke:#09116D;stroke-width:0.75;stroke-miterlimit:10;" x1="96.468" y1="132.55" x2="144.867" y2="121.851"/>
				
					<line style="fill:none;stroke:#09116D;stroke-width:0.75;stroke-miterlimit:10;" x1="98.178" y1="140.287" x2="146.578" y2="129.588"/>
				
					<line style="fill:none;stroke:#09116D;stroke-width:0.75;stroke-miterlimit:10;" x1="106.73" y1="178.974" x2="223.245" y2="153.217"/>
				
					<line style="fill:none;stroke:#09116D;stroke-width:0.75;stroke-miterlimit:10;" x1="109.35" y1="190.827" x2="225.866" y2="165.07"/>
				
					<line style="fill:none;stroke:#09116D;stroke-width:0.75;stroke-miterlimit:10;" x1="111.971" y1="202.68" x2="228.486" y2="176.923"/>
				
					<line style="fill:none;stroke:#09116D;stroke-width:0.75;stroke-miterlimit:10;" x1="114.591" y1="214.533" x2="231.106" y2="188.776"/>
				
					<line style="fill:none;stroke:#09116D;stroke-width:0.75;stroke-miterlimit:10;" x1="117.211" y1="226.386" x2="233.726" y2="200.629"/>
				
					<line style="fill:none;stroke:#09116D;stroke-width:0.75;stroke-miterlimit:10;" x1="119.831" y1="238.239" x2="236.346" y2="212.482"/>
				
					<line style="fill:none;stroke:#09116D;stroke-width:0.75;stroke-miterlimit:10;" x1="122.451" y1="250.092" x2="212.06" y2="230.283"/>
				
					<line style="fill:none;stroke:#09116D;stroke-width:0.75;stroke-miterlimit:10;" x1="125.072" y1="261.944" x2="214.68" y2="242.136"/>
				<path style="fill:none;stroke:#09116D;stroke-width:0.75;stroke-miterlimit:10;" d="M252.724,220.775l-8.437,1.865
					c-3.841,0.849-6.267,4.652-5.418,8.493l3.703,16.75"/>
			</g>
			<g>
				<path style="fill:#09116D;stroke:#09116D;stroke-width:0.75;stroke-miterlimit:10;" d="M226.658,304.41l-113.483,61.105
					c-2.441,1.314-5.485,0.401-6.799-2.04l-84.38-156.708c-1.314-2.441-0.401-5.485,2.04-6.799l121.294-65.311
					c4.775-2.571,10.729-0.784,13.3,3.99l71.36,132.528L226.658,304.41z"/>
				<path style="fill:#EFC4D9;stroke:#09116D;stroke-width:0.75;stroke-miterlimit:10;" d="M226.339,299.133l-111.938,60.273
					c-3.294,1.773-7.401,0.541-9.175-2.753l-82.717-153.62c-1.774-3.294-0.541-7.401,2.752-9.175l122.432-65.923
					c3.294-1.773,7.401-0.541,9.175,2.753l72.803,135.209L226.339,299.133z"/>
				
					<line style="fill:none;stroke:#09116D;stroke-width:0.75;stroke-miterlimit:10;" x1="50.839" y1="224.894" x2="156.018" y2="168.261"/>
				
					<line style="fill:none;stroke:#09116D;stroke-width:0.75;stroke-miterlimit:10;" x1="54.595" y1="231.871" x2="159.774" y2="175.238"/>
				
					<line style="fill:none;stroke:#09116D;stroke-width:0.75;stroke-miterlimit:10;" x1="42.688" y1="209.633" x2="147.867" y2="152.999"/>
				
					<line style="fill:none;stroke:#09116D;stroke-width:0.75;stroke-miterlimit:10;" x1="46.445" y1="216.61" x2="151.624" y2="159.976"/>
				
					<line style="fill:none;stroke:#09116D;stroke-width:0.75;stroke-miterlimit:10;" x1="73.379" y1="266.756" x2="178.445" y2="210.184"/>
				
					<line style="fill:none;stroke:#09116D;stroke-width:0.75;stroke-miterlimit:10;" x1="79.134" y1="277.444" x2="184.2" y2="220.872"/>
				
					<line style="fill:none;stroke:#09116D;stroke-width:0.75;stroke-miterlimit:10;" x1="84.889" y1="288.133" x2="189.955" y2="231.56"/>
				
					<line style="fill:none;stroke:#09116D;stroke-width:0.75;stroke-miterlimit:10;" x1="90.644" y1="298.821" x2="195.71" y2="242.248"/>
				
					<line style="fill:none;stroke:#09116D;stroke-width:0.75;stroke-miterlimit:10;" x1="96.399" y1="309.509" x2="201.465" y2="252.936"/>
				
					<line style="fill:none;stroke:#09116D;stroke-width:0.75;stroke-miterlimit:10;" x1="102.154" y1="320.197" x2="207.22" y2="263.625"/>
				
					<line style="fill:none;stroke:#09116D;stroke-width:0.75;stroke-miterlimit:10;" x1="107.909" y1="330.885" x2="188.712" y2="287.377"/>
				
					<line style="fill:none;stroke:#09116D;stroke-width:0.75;stroke-miterlimit:10;" x1="113.664" y1="341.573" x2="194.467" y2="298.065"/>
				<path style="fill:none;stroke:#09116D;stroke-width:0.75;stroke-miterlimit:10;" d="M225.239,267.134l-7.608,4.096
					c-3.464,1.865-4.76,6.185-2.895,9.649l8.133,15.104"/>
			</g>
			<g>
				<path style="fill:#09116D;" d="M438.013,321.451l-308.954,77.532c-7.002,1.757-14.168-2.534-15.925-9.535L70.39,219.121
					c-1.757-7.002,2.534-14.168,9.535-15.925l308.954-77.532c7.002-1.757,14.168,2.534,15.925,9.535l42.744,170.328
					C449.305,312.528,445.014,319.694,438.013,321.451z"/>
				<path style="fill:#5583FB;" d="M439.679,314.767L130.724,392.3c-7.002,1.757-14.168-2.534-15.925-9.536L72.056,212.437
					c-1.757-7.002,2.534-14.168,9.535-15.925l308.954-77.532c7.002-1.757,14.168,2.534,15.925,9.536l42.744,170.327
					C450.971,305.844,446.68,313.01,439.679,314.767z"/>
				<path style="fill:#FFFFFF;stroke:#09116D;stroke-width:0.75;stroke-miterlimit:10;" d="M437.897,307.136l-310.736,77.979
					c-1.45,0.364-2.933-0.525-3.297-1.974L80.14,208.907c-0.364-1.449,0.525-2.933,1.974-3.297L392.85,127.63
					c1.449-0.364,2.933,0.525,3.297,1.974l43.724,174.234C440.235,305.288,439.346,306.772,437.897,307.136z"/>
				<path style="fill:#FFFFFF;stroke:#09116D;stroke-width:0.75;stroke-miterlimit:10;" d="M428.046,300.379l-147.502,37.016
					l-150.595,37.792c-1.42,0.356-2.874-0.514-3.23-1.934L82.967,198.911c-0.356-1.42,0.514-2.874,1.934-3.23l148.438-37.251
					l149.659-37.557c1.42-0.356,2.874,0.514,3.23,1.934l43.751,174.341C430.336,298.569,429.466,300.022,428.046,300.379z"/>
				<path style="fill:#FFFFFF;stroke:#09116D;stroke-width:0.75;stroke-miterlimit:10;" d="M92.144,193.864
					c0,0,24.574-6.167,58.629-23.145c34.055-16.978,82.566-12.288,82.566-12.288l47.204,178.964c0,0-48.088-4.135-76.74,11.477
					c-28.652,15.612-70.244,25.409-70.244,25.409l-4.484,1.004c0,0-1.201,0.777-1.889-1.067c-0.688-1.845,0,0,0,0l-1.541,10.213
					l1.516,0.685l38.828-9.744l0.578-0.145l114.514-28.737l-0.538-9.094c0,0,28.288-19.942,62.33-22.063
					c34.042-2.121,68.032-10.651,68.032-10.651"/>
				<polyline style="fill:#FFFFFF;stroke:#09116D;stroke-width:0.75;stroke-miterlimit:10;" points="125.54,385.015 
					127.255,375.392 82.967,198.911 80.014,206.775 				"/>
				
					<line style="fill:#FFFFFF;stroke:#09116D;stroke-width:0.75;stroke-miterlimit:10;" x1="430.128" y1="298.87" x2="440.01" y2="306.197"/>
				<path style="fill:#FFFFFF;stroke:#09116D;stroke-width:0.75;stroke-miterlimit:10;" d="M399.481,142.891l-3.6-14.628
					l-4.534-2.715l-5.233-3.812c0,0,0.312,1.858,2.168,9.251"/>
				<path style="fill:#FFFFFF;stroke:#09116D;stroke-width:0.75;stroke-miterlimit:10;" d="M374.754,122.942
					c0,0-15.673,3.926-61.194,10.121c-56.535,7.694-80.264,24.638-80.264,24.638l1.356,5.707"/>
				<path style="fill:#FFFFFF;stroke:#09116D;stroke-width:0.75;stroke-miterlimit:10;" d="M261.859,339.109"/>
				<path style="fill:#09116D;" d="M280.544,337.395c0,0,0.389-0.24,1.126-0.67c6.455-3.768,27.484-19.399,72.848-22.354
					c31.45-2.048,73.528-13.992,73.528-13.992S295.54,332.936,280.544,337.395z"/>
				
					<line style="fill:#FFFFFF;stroke:#09116D;stroke-width:0.75;stroke-miterlimit:10;" x1="273.779" y1="341.456" x2="132.531" y2="378.29"/>
				<path style="fill:#09116D;" d="M280.544,337.395l-107.26,24.849c0,0,22.823-9.752,33.356-15.122
					C217.172,341.752,253.072,333.492,280.544,337.395z"/>
				
					<line style="fill:#FFFFFF;stroke:#09116D;stroke-width:0.75;stroke-miterlimit:10;" x1="284.015" y1="342.546" x2="345.209" y2="328.078"/>
				
					<line style="fill:#FFFFFF;stroke:#09116D;stroke-width:0.75;stroke-miterlimit:10;" x1="373.131" y1="318.617" x2="414.193" y2="307.724"/>
				
					<line style="fill:#FFFFFF;stroke:#09116D;stroke-width:0.75;stroke-miterlimit:10;" x1="393.338" y1="141.457" x2="415.567" y2="229.657"/>
				
					<line style="fill:#FFFFFF;stroke:#09116D;stroke-width:0.75;stroke-miterlimit:10;" x1="420.314" y1="241.13" x2="428.796" y2="276.344"/>
				<path style="fill:#E2737E;stroke:#09116D;stroke-width:0.75;stroke-miterlimit:10;" d="M240.426,148.453l16.301,53.721
					l6.092-11.662l12.537,5.588l-15.943-54.152c-0.931-3.162-4.38-4.838-7.441-3.615l-8.267,3.302
					C241.007,142.711,239.583,145.673,240.426,148.453z"/>
				<path style="fill:#FAECEE;stroke:#09116D;stroke-width:0.75;stroke-miterlimit:10;" d="M396.284,149.913l15.487-3.886
					c2.241-0.562,4.682,1.398,5.424,4.357l2.353,9.377c0.742,2.959-0.484,5.839-2.724,6.402l-15.487,3.886"/>
				<path style="fill:#A7BDFD;stroke:#09116D;stroke-width:0.75;stroke-miterlimit:10;" d="M405.107,176.814l15.487-3.886
					c2.241-0.562,4.682,1.398,5.424,4.357l2.353,9.377c0.742,2.959-0.483,5.839-2.724,6.402l-15.487,3.886"/>
				<path style="fill:#EFC4D9;stroke:#09116D;stroke-width:0.75;stroke-miterlimit:10;" d="M400.253,246.165l27.353-5.112
					c2.241-0.562,3.467-3.443,2.724-6.402l-2.353-9.377c-0.742-2.959-3.183-4.919-5.424-4.357L395.2,226.03L400.253,246.165z"/>
				<g>
					<defs>
						
							<ellipse id="SVGID_00000018938508095903363630000009544098220186890427_" transform="matrix(0.74 -0.6726 0.6726 0.74 -25.7225 260.2743)" cx="323.8" cy="163.409" rx="19.701" ry="19.701"/>
					</defs>
					<clipPath id="SVGID_00000008839503913487429130000003552576702224803766_">
						<use xlink:href="#SVGID_00000018938508095903363630000009544098220186890427_"  style="overflow:visible;"/>
					</clipPath>
					
						<rect x="297.235" y="142.922" transform="matrix(0.9511 -0.3089 0.3089 0.9511 -34.4389 108.1433)" style="clip-path:url(#SVGID_00000008839503913487429130000003552576702224803766_);fill:#5583FB;" width="54.26" height="39.858"/>
					<g style="clip-path:url(#SVGID_00000008839503913487429130000003552576702224803766_);">
						
							<rect x="294.61" y="159.641" transform="matrix(0.7381 -0.6747 0.6747 0.7381 -25.1343 261.0145)" style="fill:#FFFFFF;" width="58.047" height="6.482"/>
						
							<rect x="294.61" y="161.629" transform="matrix(0.7381 -0.6747 0.6747 0.7381 -25.1345 261.0141)" style="fill:#E2737E;" width="58.047" height="2.505"/>
						
							<rect x="297.352" y="160.305" transform="matrix(0.9864 0.1645 -0.1645 0.9864 31.3256 -51.2038)" style="fill:#FFFFFF;" width="54.972" height="6.482"/>
						
							<rect x="297.352" y="162.293" transform="matrix(0.9864 0.1645 -0.1645 0.9864 31.3252 -51.2033)" style="fill:#E2737E;" width="54.972" height="2.505"/>
						
							<rect x="320.363" y="142.636" transform="matrix(0.9511 -0.3089 0.3089 0.9511 -35.1514 108.2)" style="fill:#FFFFFF;" width="7.63" height="44.982"/>
						
							<rect x="320.776" y="136.287" transform="matrix(0.3088 0.9511 -0.9511 0.3088 379.7972 -195.7548)" style="fill:#FFFFFF;" width="7.63" height="54.32"/>
						
							<rect x="322.208" y="136.306" transform="matrix(0.3089 0.9511 -0.9511 0.3089 379.7684 -195.6879)" style="fill:#E2737E;" width="4.649" height="54.32"/>
						
							<rect x="321.599" y="142.421" transform="matrix(-0.9511 0.3088 -0.3088 -0.9511 682.5904 219.4963)" style="fill:#E2737E;" width="4.649" height="42.705"/>
					</g>
					
						<use xlink:href="#SVGID_00000018938508095903363630000009544098220186890427_"  style="overflow:visible;fill:none;stroke:#09116D;stroke-width:0.75;stroke-miterlimit:10;"/>
				</g>
				<g>
					<path style="fill:none;stroke:#09116D;stroke-width:0.75;stroke-miterlimit:10;" d="M114.927,229.666
						c46.449-10.07,57.202-30.373,102.479-33.05"/>
					<path style="fill:none;stroke:#09116D;stroke-width:0.75;stroke-miterlimit:10;" d="M116.475,238.484
						c46.449-10.07,57.202-30.373,102.479-33.05"/>
					<path style="fill:none;stroke:#09116D;stroke-width:0.75;stroke-miterlimit:10;" d="M119.683,247.334
						c46.449-10.07,57.202-30.372,102.479-33.05"/>
					<path style="fill:none;stroke:#09116D;stroke-width:0.75;stroke-miterlimit:10;" d="M121.231,256.152
						c46.449-10.07,57.202-30.373,102.479-33.05"/>
					<path style="fill:none;stroke:#09116D;stroke-width:0.75;stroke-miterlimit:10;" d="M374.803,188.132
						c-45.229,14.603-64.72,2.44-105.224,22.85"/>
					<path style="fill:none;stroke:#09116D;stroke-width:0.75;stroke-miterlimit:10;" d="M377.889,196.535
						c-45.229,14.603-64.719,2.44-105.224,22.85"/>
					<path style="fill:none;stroke:#09116D;stroke-width:0.75;stroke-miterlimit:10;" d="M379.557,205.801
						c-45.229,14.603-64.719,2.44-105.224,22.85"/>
					<path style="fill:none;stroke:#09116D;stroke-width:0.75;stroke-miterlimit:10;" d="M382.643,214.204
						c-45.229,14.603-64.719,2.44-105.224,22.85"/>
					<path style="fill:#FAECEE;stroke:#09116D;stroke-width:0.75;stroke-miterlimit:10;" d="M240.445,278.608
						c-45.355,0.25-55.147,27.405-102.068,34.974L126.623,268.9c46.921-7.569,56.494-33.968,101.849-34.217L240.445,278.608z"/>
					<g>
						<path style="fill:#E2737E;" d="M208.923,308.108c12.073-4.462,24.353-6.979,36.381-7.549c1.996-0.092,3.219-1.688,2.727-3.617
							c-0.458-1.787-0.916-3.57-1.376-5.349c-0.494-1.919-2.536-3.409-4.544-3.242c-12.092,0.981-24.382,3.912-36.407,8.789
							c-1.995,0.812-3.213,2.908-2.716,4.588c0.462,1.564,0.926,3.131,1.389,4.703C204.876,308.121,206.918,308.844,208.923,308.108
							z"/>
					</g>
					<g>
						<path style="fill:#E2737E;" d="M217.003,330.749c11.312-3.913,22.938-6.189,34.518-6.751c2.647-0.125,4.373-2.18,3.826-4.688
							c-0.846-3.836-1.716-7.659-2.61-11.467c-0.578-2.486-3.327-4.402-6.093-4.133c-12.062,1.143-24.099,4.057-35.738,8.664
							c-2.669,1.06-4.188,3.798-3.418,5.97c1.178,3.345,2.338,6.713,3.48,10.102C211.714,330.65,214.415,331.637,217.003,330.749z"
							/>
					</g>
				</g>
				<g>
					<path style="fill:none;stroke:#09116D;stroke-width:0.75;stroke-miterlimit:10;" d="M186.992,311.887
						c-12.237,5.838-25.526,11.965-45.268,16.246"/>
					<path style="fill:none;stroke:#09116D;stroke-width:0.75;stroke-miterlimit:10;" d="M189.722,320.141
						c-12.566,6.004-26.073,12.392-46.451,16.809"/>
					<path style="fill:none;stroke:#09116D;stroke-width:0.75;stroke-miterlimit:10;" d="M192.689,329.107
						c-12.498,5.971-25.962,12.304-46.209,16.694"/>
					<path style="fill:none;stroke:#09116D;stroke-width:0.75;stroke-miterlimit:10;" d="M195.419,337.36
						c-12.837,6.133-26.503,12.73-47.391,17.258"/>
					<line style="fill:none;" x1="189.722" y1="320.141" x2="192.689" y2="329.107"/>
					<line style="fill:none;" x1="186.992" y1="311.887" x2="189.722" y2="320.141"/>
					<line style="fill:none;" x1="192.689" y1="329.107" x2="195.419" y2="337.36"/>
				</g>
				<g>
					<path style="fill:none;stroke:#5583FB;stroke-width:0.75;stroke-linecap:round;stroke-miterlimit:10;" d="M284.405,251.653
						c0,0,16.053-9.496,32.7-8.941"/>
					<path style="fill:none;stroke:#5583FB;stroke-width:0.75;stroke-linecap:round;stroke-miterlimit:10;" d="M295.444,292.122
						c0,0,16.053-9.496,32.7-8.941"/>
					<path style="fill:none;stroke:#5583FB;stroke-width:0.75;stroke-linecap:round;stroke-miterlimit:10;" d="M287.233,261.26
						c0,0,16.053-9.496,32.7-8.941"/>
					<path style="fill:none;stroke:#5583FB;stroke-width:0.75;stroke-linecap:round;stroke-miterlimit:10;" d="M289.913,271.211
						c0,0,16.053-9.496,32.7-8.941"/>
					<path style="fill:none;stroke:#5583FB;stroke-width:0.75;stroke-linecap:round;stroke-miterlimit:10;" d="M292.74,280.818
						c0,0,16.053-9.496,32.7-8.941"/>
					<path style="fill:none;stroke:#09116D;stroke-width:0.75;stroke-miterlimit:10;" d="M330.902,240.357
						c0,0,24.824,1.805,54.642-8.742"/>
					<path style="fill:none;stroke:#09116D;stroke-width:0.75;stroke-miterlimit:10;" d="M334.835,251.128
						c0,0,24.824,1.805,54.642-8.742"/>
					<path style="fill:none;stroke:#09116D;stroke-width:0.75;stroke-miterlimit:10;" d="M337.53,263.097
						c0,0,24.824,1.805,54.642-8.742"/>
					<path style="fill:none;stroke:#09116D;stroke-width:0.75;stroke-miterlimit:10;" d="M339.916,273.293
						c0,0,24.824,1.805,54.642-8.742"/>
					<path style="fill:none;stroke:#09116D;stroke-width:0.75;stroke-miterlimit:10;" d="M343.506,284.015
						c0,0,24.824,1.805,54.642-8.742"/>
				</g>
			</g>
			<g>
				<path style="fill:#09116D;stroke:#09116D;stroke-width:0.75;stroke-miterlimit:10;" d="M244.883,56.472
					c-6.223,36.229,19.803,70.215,59.109,70.215c39.306,0,67.649-33.986,63.895-70.215C364.658,25.3,338.111,3.052,308.206,3.052
					S250.237,25.3,244.883,56.472z"/>
				<path style="fill:#FFFFFF;stroke:#09116D;stroke-width:0.75;stroke-miterlimit:10;" d="M246.714,54.605
					c-5.71,35.747,20.566,69.246,59.58,69.246s66.768-33.5,62.635-69.246c-3.56-30.787-30.208-52.778-59.943-52.778
					S251.632,23.818,246.714,54.605z"/>
				<path style="fill:#FFFFFF;stroke:#09116D;stroke-width:0.75;stroke-miterlimit:10;" d="M350.05,44.382l34.162-11.587
					c4.3-1.459,5.928-6.041,3.685-10.118l0,0c-2.2-3.998-7.364-6.107-11.54-4.749l-33.134,10.774
					c-4.43,1.44-6.641,6.098-4.854,10.419l0,0C340.192,43.532,345.478,45.932,350.05,44.382z"/>
				<path style="fill:#09116D;stroke:#09116D;stroke-width:0.75;stroke-miterlimit:10;" d="M261.021,54.502
					c-3.505,27.48,17.251,52.387,46.773,52.387c29.522,0,51.263-24.907,48.846-52.387c-2.151-24.451-23.089-42.38-46.971-42.38
					C285.787,12.123,264.14,30.051,261.021,54.502z"/>
				<path style="fill:#FFFFFF;stroke:#09116D;stroke-width:0.75;stroke-miterlimit:10;" d="M264.718,51.062
					c-3.249,27.042,17.534,51.53,46.801,51.53c29.266,0,50.656-24.488,48.077-51.53C357.3,26.978,336.39,9.306,312.675,9.306
					C288.959,9.306,267.612,26.978,264.718,51.062z"/>
				<path style="fill:#09116D;" d="M274.769,51.062c-2.047,21.039,14.39,39.629,36.897,39.629c22.507,0,39.405-18.59,37.879-39.629
					c-1.393-19.204-17.898-33.584-36.972-33.584S276.638,31.858,274.769,51.062z"/>
				<path style="fill:none;stroke:#FAECEE;stroke-width:0.75;stroke-linecap:round;stroke-miterlimit:10;" d="M334.853,37.165
					c-5.088-6.638-13.097-10.918-22.106-10.918"/>
				<path style="fill:none;stroke:#FAECEE;stroke-width:0.75;stroke-linecap:round;stroke-miterlimit:10;" d="M284.91,54.084
					c0,7.505,2.97,14.317,7.799,19.323c5.063,5.249,12.169,8.513,20.037,8.513c7.048,0,13.485-2.619,18.389-6.938"/>
			</g>
			<g>
				<g>
					<path style="fill:#09116D;stroke:#09116D;stroke-width:0.75;stroke-miterlimit:10;" d="M461.798,362.31
						c0.007,0.173,0.01,0.347-0.012,0.525c-0.215,1.745-1.804,2.986-3.55,2.771c-1.745-0.215-2.986-1.804-2.771-3.55
						c0.022-0.177,0.067-0.346,0.116-0.512l-2.785-0.343c0.007,0.173,0.01,0.347-0.012,0.525c-0.215,1.745-1.804,2.986-3.55,2.771
						c-1.745-0.215-2.986-1.804-2.771-3.55c0.022-0.177,0.067-0.346,0.116-0.512l-2.484-0.306c0.007,0.173,0.01,0.347-0.012,0.524
						c-0.215,1.745-1.804,2.986-3.55,2.771c-1.745-0.215-2.986-1.804-2.771-3.55c0.022-0.177,0.067-0.346,0.116-0.512l-2.785-0.343
						c0.007,0.173,0.01,0.347-0.012,0.525c-0.215,1.745-1.804,2.986-3.55,2.771c-1.745-0.215-2.986-1.804-2.771-3.55
						c0.022-0.177,0.067-0.346,0.116-0.512l-3.705-0.457c0.007,0.173,0.01,0.347-0.011,0.524c-0.215,1.745-1.804,2.986-3.55,2.771
						c-1.745-0.215-2.986-1.804-2.771-3.55c0.022-0.177,0.067-0.346,0.116-0.512l-2.785-0.343c0.007,0.173,0.01,0.347-0.012,0.524
						c-0.215,1.745-1.804,2.986-3.55,2.771c-1.745-0.215-2.986-1.804-2.771-3.55c0.022-0.177,0.067-0.346,0.116-0.512l-2.484-0.306
						c0.007,0.173,0.01,0.347-0.012,0.524c-0.215,1.745-1.804,2.986-3.549,2.771c-1.745-0.215-2.986-1.804-2.771-3.549
						c0.022-0.177,0.067-0.346,0.116-0.512l-2.785-0.343c0.007,0.173,0.01,0.347-0.012,0.524c-0.215,1.745-1.804,2.986-3.55,2.771
						c-1.745-0.215-2.986-1.804-2.771-3.549c0.022-0.177,0.067-0.346,0.116-0.512l0,0c-2.631-0.324-5.027,1.546-5.352,4.178
						l-11.455,92.965c-0.323,2.623,1.534,5.014,4.156,5.349l70.532,9.017c2.638,0.337,5.048-1.535,5.373-4.175l11.486-93.212
						c0.31-2.515-1.389-4.838-3.88-5.305L461.798,362.31z"/>
				</g>
				<g>
					<path style="fill:#FFFFFF;stroke:#09116D;stroke-width:0.75;stroke-miterlimit:10;" d="M464.798,361.31
						c0.007,0.173,0.01,0.347-0.012,0.525c-0.215,1.745-1.804,2.986-3.55,2.771c-1.745-0.215-2.986-1.804-2.771-3.55
						c0.022-0.177,0.067-0.346,0.116-0.512l-2.785-0.343c0.007,0.173,0.01,0.347-0.012,0.525c-0.215,1.745-1.804,2.986-3.55,2.771
						c-1.745-0.215-2.986-1.804-2.771-3.55c0.022-0.177,0.067-0.346,0.116-0.512l-2.484-0.306c0.007,0.173,0.01,0.347-0.012,0.524
						c-0.215,1.745-1.804,2.986-3.55,2.771c-1.745-0.215-2.986-1.804-2.771-3.55c0.022-0.177,0.067-0.346,0.116-0.512l-2.785-0.343
						c0.007,0.173,0.01,0.347-0.012,0.525c-0.215,1.745-1.804,2.986-3.55,2.771c-1.745-0.215-2.986-1.804-2.771-3.55
						c0.022-0.177,0.067-0.346,0.116-0.512l-3.705-0.457c0.007,0.173,0.01,0.347-0.011,0.524c-0.215,1.745-1.804,2.986-3.55,2.771
						c-1.745-0.215-2.986-1.804-2.771-3.55c0.022-0.177,0.067-0.346,0.116-0.512l-2.785-0.343c0.007,0.173,0.01,0.347-0.012,0.524
						c-0.215,1.745-1.804,2.986-3.55,2.771c-1.745-0.215-2.986-1.804-2.771-3.55c0.022-0.177,0.067-0.346,0.116-0.512l-2.484-0.306
						c0.007,0.173,0.01,0.347-0.012,0.524c-0.215,1.745-1.804,2.986-3.549,2.771c-1.745-0.215-2.986-1.804-2.771-3.549
						c0.022-0.177,0.067-0.346,0.116-0.512l-2.785-0.343c0.007,0.173,0.01,0.347-0.012,0.524c-0.215,1.745-1.804,2.986-3.55,2.771
						c-1.745-0.215-2.986-1.804-2.771-3.549c0.022-0.177,0.067-0.346,0.116-0.512l0,0c-2.631-0.324-5.027,1.546-5.352,4.178
						l-11.455,92.965c-0.323,2.623,1.534,5.014,4.156,5.349l70.532,9.017c2.638,0.337,5.048-1.535,5.373-4.175l11.486-93.212
						c0.31-2.515-1.389-4.838-3.88-5.305L464.798,361.31z"/>
				</g>
				<g>
					<defs>
						<path id="SVGID_00000024693754292615609380000014791396233328623029_" d="M464.798,361.31c0.007,0.173,0.01,0.347-0.012,0.525
							c-0.215,1.745-1.804,2.986-3.55,2.771c-1.745-0.215-2.986-1.804-2.771-3.55c0.022-0.177,0.067-0.346,0.116-0.512l-2.785-0.343
							c0.007,0.173,0.01,0.347-0.012,0.525c-0.215,1.745-1.804,2.986-3.55,2.771c-1.745-0.215-2.986-1.804-2.771-3.55
							c0.022-0.177,0.067-0.346,0.116-0.512l-2.484-0.306c0.007,0.173,0.01,0.347-0.012,0.524c-0.215,1.745-1.804,2.986-3.55,2.771
							c-1.745-0.215-2.986-1.804-2.771-3.55c0.022-0.177,0.067-0.346,0.116-0.512l-2.785-0.343c0.007,0.173,0.01,0.347-0.012,0.525
							c-0.215,1.745-1.804,2.986-3.55,2.771c-1.745-0.215-2.986-1.804-2.771-3.55c0.022-0.177,0.067-0.346,0.116-0.512l-3.705-0.457
							c0.007,0.173,0.01,0.347-0.011,0.524c-0.215,1.745-1.804,2.986-3.55,2.771c-1.745-0.215-2.986-1.804-2.771-3.55
							c0.022-0.177,0.067-0.346,0.116-0.512l-2.785-0.343c0.007,0.173,0.01,0.347-0.012,0.524c-0.215,1.745-1.804,2.986-3.55,2.771
							c-1.745-0.215-2.986-1.804-2.771-3.55c0.022-0.177,0.067-0.346,0.116-0.512l-2.484-0.306c0.007,0.173,0.01,0.347-0.012,0.524
							c-0.215,1.745-1.804,2.986-3.549,2.771c-1.745-0.215-2.986-1.804-2.771-3.549c0.022-0.177,0.067-0.346,0.116-0.512
							l-2.785-0.343c0.007,0.173,0.01,0.347-0.012,0.524c-0.215,1.745-1.804,2.986-3.55,2.771c-1.745-0.215-2.986-1.804-2.771-3.549
							c0.022-0.177,0.067-0.346,0.116-0.512l0,0c-2.631-0.324-5.027,1.546-5.352,4.178l-11.455,92.965
							c-0.323,2.623,1.534,5.014,4.156,5.349l70.532,9.017c2.638,0.337,5.048-1.535,5.373-4.175l11.486-93.212
							c0.31-2.515-1.389-4.838-3.88-5.305L464.798,361.31z"/>
					</defs>
					<clipPath id="SVGID_00000183246214465688698360000005316705395496248220_">
						<use xlink:href="#SVGID_00000024693754292615609380000014791396233328623029_"  style="overflow:visible;"/>
					</clipPath>
					<g style="clip-path:url(#SVGID_00000183246214465688698360000005316705395496248220_);">
						<g>
							
								<line style="fill:none;stroke:#A7BDFD;stroke-width:0.75;stroke-miterlimit:10;" x1="432.41" y1="367.733" x2="420.804" y2="459.539"/>
							
								<line style="fill:none;stroke:#A7BDFD;stroke-width:0.75;stroke-miterlimit:10;" x1="439.358" y1="368.611" x2="427.752" y2="460.417"/>
							
								<line style="fill:none;stroke:#A7BDFD;stroke-width:0.75;stroke-miterlimit:10;" x1="445.765" y1="369.421" x2="434.159" y2="461.227"/>
							
								<line style="fill:none;stroke:#A7BDFD;stroke-width:0.75;stroke-miterlimit:10;" x1="452.713" y1="370.3" x2="441.107" y2="462.105"/>
							
								<line style="fill:none;stroke:#A7BDFD;stroke-width:0.75;stroke-miterlimit:10;" x1="459.68" y1="371.181" x2="448.073" y2="462.986"/>
							
								<line style="fill:none;stroke:#A7BDFD;stroke-width:0.75;stroke-miterlimit:10;" x1="466.628" y1="372.059" x2="455.021" y2="463.864"/>
							
								<line style="fill:none;stroke:#A7BDFD;stroke-width:0.75;stroke-miterlimit:10;" x1="473.034" y1="372.869" x2="461.428" y2="464.674"/>
							
								<line style="fill:none;stroke:#A7BDFD;stroke-width:0.75;stroke-miterlimit:10;" x1="479.982" y1="373.747" x2="468.376" y2="465.553"/>
							
								<line style="fill:none;stroke:#A7BDFD;stroke-width:0.75;stroke-miterlimit:10;" x1="378.979" y1="360.978" x2="367.373" y2="452.784"/>
							
								<line style="fill:none;stroke:#A7BDFD;stroke-width:0.75;stroke-miterlimit:10;" x1="385.927" y1="361.857" x2="374.321" y2="453.662"/>
							
								<line style="fill:none;stroke:#A7BDFD;stroke-width:0.75;stroke-miterlimit:10;" x1="392.334" y1="362.666" x2="380.728" y2="454.472"/>
							
								<line style="fill:none;stroke:#A7BDFD;stroke-width:0.75;stroke-miterlimit:10;" x1="399.282" y1="363.545" x2="387.676" y2="455.35"/>
							
								<line style="fill:none;stroke:#A7BDFD;stroke-width:0.75;stroke-miterlimit:10;" x1="406.248" y1="364.426" x2="394.642" y2="456.231"/>
							
								<line style="fill:none;stroke:#A7BDFD;stroke-width:0.75;stroke-miterlimit:10;" x1="413.196" y1="365.304" x2="401.59" y2="457.109"/>
							
								<line style="fill:none;stroke:#A7BDFD;stroke-width:0.75;stroke-miterlimit:10;" x1="419.603" y1="366.114" x2="407.997" y2="457.919"/>
							
								<line style="fill:none;stroke:#A7BDFD;stroke-width:0.75;stroke-miterlimit:10;" x1="426.551" y1="366.992" x2="414.945" y2="458.798"/>
						</g>
						<g>
							
								<line style="fill:none;stroke:#A7BDFD;stroke-width:0.75;stroke-miterlimit:10;" x1="469.21" y1="421.998" x2="377.404" y2="410.392"/>
							
								<line style="fill:none;stroke:#A7BDFD;stroke-width:0.75;stroke-miterlimit:10;" x1="468.332" y1="428.946" x2="376.526" y2="417.34"/>
							
								<line style="fill:none;stroke:#A7BDFD;stroke-width:0.75;stroke-miterlimit:10;" x1="467.522" y1="435.353" x2="375.716" y2="423.747"/>
							
								<line style="fill:none;stroke:#A7BDFD;stroke-width:0.75;stroke-miterlimit:10;" x1="466.643" y1="442.301" x2="374.838" y2="430.695"/>
							
								<line style="fill:none;stroke:#A7BDFD;stroke-width:0.75;stroke-miterlimit:10;" x1="465.763" y1="449.267" x2="373.957" y2="437.661"/>
							
								<line style="fill:none;stroke:#A7BDFD;stroke-width:0.75;stroke-miterlimit:10;" x1="464.884" y1="456.215" x2="373.079" y2="444.609"/>
							
								<line style="fill:none;stroke:#A7BDFD;stroke-width:0.75;stroke-miterlimit:10;" x1="464.074" y1="462.622" x2="372.269" y2="451.016"/>
							
								<line style="fill:none;stroke:#A7BDFD;stroke-width:0.75;stroke-miterlimit:10;" x1="463.196" y1="469.57" x2="371.39" y2="457.964"/>
							
								<line style="fill:none;stroke:#A7BDFD;stroke-width:0.75;stroke-miterlimit:10;" x1="475.965" y1="368.567" x2="384.159" y2="356.961"/>
							
								<line style="fill:none;stroke:#A7BDFD;stroke-width:0.75;stroke-miterlimit:10;" x1="475.087" y1="375.515" x2="383.281" y2="363.909"/>
							
								<line style="fill:none;stroke:#A7BDFD;stroke-width:0.75;stroke-miterlimit:10;" x1="474.277" y1="381.922" x2="382.471" y2="370.315"/>
							
								<line style="fill:none;stroke:#A7BDFD;stroke-width:0.75;stroke-miterlimit:10;" x1="473.398" y1="388.87" x2="381.593" y2="377.263"/>
							
								<line style="fill:none;stroke:#A7BDFD;stroke-width:0.75;stroke-miterlimit:10;" x1="472.518" y1="395.836" x2="380.712" y2="384.23"/>
							
								<line style="fill:none;stroke:#A7BDFD;stroke-width:0.75;stroke-miterlimit:10;" x1="471.639" y1="402.784" x2="379.834" y2="391.178"/>
							
								<line style="fill:none;stroke:#A7BDFD;stroke-width:0.75;stroke-miterlimit:10;" x1="470.829" y1="409.191" x2="379.024" y2="397.585"/>
							
								<line style="fill:none;stroke:#A7BDFD;stroke-width:0.75;stroke-miterlimit:10;" x1="469.951" y1="416.139" x2="378.145" y2="404.533"/>
						</g>
					</g>
				</g>
				<g>
					<path style="fill:none;stroke:#09116D;stroke-width:0.75;stroke-miterlimit:10;" d="M464.798,361.31
						c0.007,0.173,0.01,0.347-0.012,0.525c-0.215,1.745-1.804,2.986-3.55,2.771c-1.745-0.215-2.986-1.804-2.771-3.55
						c0.022-0.177,0.067-0.346,0.116-0.512l-2.785-0.343c0.007,0.173,0.01,0.347-0.012,0.525c-0.215,1.745-1.804,2.986-3.55,2.771
						c-1.745-0.215-2.986-1.804-2.771-3.55c0.022-0.177,0.067-0.346,0.116-0.512l-2.484-0.306c0.007,0.173,0.01,0.347-0.012,0.524
						c-0.215,1.745-1.804,2.986-3.55,2.771c-1.745-0.215-2.986-1.804-2.771-3.55c0.022-0.177,0.067-0.346,0.116-0.512l-2.785-0.343
						c0.007,0.173,0.01,0.347-0.012,0.525c-0.215,1.745-1.804,2.986-3.55,2.771c-1.745-0.215-2.986-1.804-2.771-3.55
						c0.022-0.177,0.067-0.346,0.116-0.512l-3.705-0.457c0.007,0.173,0.01,0.347-0.011,0.524c-0.215,1.745-1.804,2.986-3.55,2.771
						c-1.745-0.215-2.986-1.804-2.771-3.55c0.022-0.177,0.067-0.346,0.116-0.512l-2.785-0.343c0.007,0.173,0.01,0.347-0.012,0.524
						c-0.215,1.745-1.804,2.986-3.55,2.771c-1.745-0.215-2.986-1.804-2.771-3.55c0.022-0.177,0.067-0.346,0.116-0.512l-2.484-0.306
						c0.007,0.173,0.01,0.347-0.012,0.524c-0.215,1.745-1.804,2.986-3.549,2.771c-1.745-0.215-2.986-1.804-2.771-3.549
						c0.022-0.177,0.067-0.346,0.116-0.512l-2.785-0.343c0.007,0.173,0.01,0.347-0.012,0.524c-0.215,1.745-1.804,2.986-3.55,2.771
						c-1.745-0.215-2.986-1.804-2.771-3.549c0.022-0.177,0.067-0.346,0.116-0.512l0,0c-2.631-0.324-5.027,1.546-5.352,4.178
						l-11.455,92.965c-0.323,2.623,1.534,5.014,4.156,5.349l70.532,9.017c2.638,0.337,5.048-1.535,5.373-4.175l11.486-93.212
						c0.31-2.515-1.389-4.838-3.88-5.305L464.798,361.31z"/>
				</g>
			</g>
			<g>
				<g>
					<path style="fill:#09116D;" d="M438.065,452.404l-73.708,55.851c-2.164,1.639-5.275,1.211-6.914-0.953l-72.234-95.328
						c-4.98-6.572-3.677-16.024,2.895-21.004l65.693-49.778c2.164-1.639,5.275-1.211,6.914,0.953l78.307,103.344
						C440.657,447.653,440.228,450.764,438.065,452.404z"/>
					<path style="fill:#E2737E;" d="M435.634,448.958l-70.59,53.488c-2.101,1.592-5.122,1.175-6.713-0.925l-71.153-93.903
						c-4.835-6.381-3.57-15.558,2.811-20.393l62.807-47.591c2.101-1.592,5.122-1.175,6.713,0.925l77.05,101.685
						C438.151,444.345,437.734,447.366,435.634,448.958z"/>
					<path style="fill:#FFFFFF;stroke:#09116D;stroke-width:0.7344;stroke-miterlimit:10;" d="M432.352,445.644l-66.319,50.252
						c-1.936,1.467-4.72,1.083-6.187-0.853l-69.689-91.97c-1.467-1.936-1.083-4.72,0.853-6.187l66.319-50.252
						c1.936-1.467,4.72-1.083,6.187,0.853l69.689,91.97C434.671,441.393,434.288,444.177,432.352,445.644z"/>
					<polyline style="fill:#FFFFFF;stroke:#09116D;stroke-width:0.75;stroke-miterlimit:10;" points="434.587,433.767 
						433.992,442.846 432.277,445.7 406.034,465.586 					"/>
					<path style="fill:#FFFFFF;stroke:#09116D;stroke-width:0.7344;stroke-miterlimit:10;" d="M289.559,392.297l-0.288,7.902
						c0,0,0.171,1.93,0.589,2.422c1.295,1.521,2.669,3.522,2.669,3.522"/>
					<path style="fill:#FFFFFF;stroke:#09116D;stroke-width:0.75;stroke-miterlimit:10;" d="M432.967,438.37l-66.81,50.624
						c-1.943,1.472-4.736,1.087-6.208-0.856l-69.671-91.946c-1.472-1.943-1.087-4.737,0.856-6.208l66.81-50.624
						c1.943-1.472,4.736-1.087,6.208,0.856l69.67,91.946C435.294,434.104,434.909,436.898,432.967,438.37z"/>
					<g>
						<path style="fill:#09116D;" d="M300.375,389.789L300.375,389.789c1.005-0.761,1.204-2.206,0.443-3.211l-4.642-6.126
							c-0.761-1.005-2.206-1.204-3.211-0.443l0,0c-1.005,0.761-1.204,2.206-0.443,3.211l4.642,6.126
							C297.925,390.352,299.37,390.551,300.375,389.789z"/>
						<path style="fill:#09116D;" d="M307.398,384.468L307.398,384.468c1.005-0.761,1.204-2.206,0.443-3.211l-4.642-6.126
							c-0.761-1.005-2.206-1.204-3.211-0.443l0,0c-1.005,0.761-1.204,2.206-0.443,3.211l4.642,6.126
							C304.949,385.03,306.394,385.229,307.398,384.468z"/>
						<path style="fill:#09116D;" d="M315.641,378.222L315.641,378.222c1.005-0.761,1.204-2.206,0.443-3.211l-4.642-6.126
							c-0.761-1.005-2.206-1.204-3.211-0.443l0,0c-1.005,0.761-1.204,2.206-0.443,3.211l4.642,6.126
							C313.192,378.784,314.637,378.983,315.641,378.222z"/>
						<path style="fill:#09116D;" d="M322.665,372.9L322.665,372.9c1.005-0.761,1.204-2.206,0.443-3.211l-4.642-6.126
							c-0.761-1.005-2.206-1.204-3.211-0.442l0,0c-1.005,0.761-1.204,2.206-0.443,3.211l4.642,6.126
							C320.215,373.462,321.66,373.661,322.665,372.9z"/>
						<path style="fill:#09116D;" d="M330.999,366.585L330.999,366.585c1.005-0.761,1.204-2.206,0.442-3.211l-4.642-6.126
							c-0.761-1.005-2.206-1.204-3.211-0.443l0,0c-1.005,0.761-1.204,2.206-0.443,3.211l4.642,6.126
							C328.549,367.147,329.994,367.346,330.999,366.585z"/>
						<path style="fill:#09116D;" d="M338.022,361.263L338.022,361.263c1.005-0.761,1.204-2.206,0.443-3.211l-4.642-6.126
							c-0.761-1.005-2.206-1.204-3.211-0.443l0,0c-1.005,0.761-1.204,2.206-0.443,3.211l4.642,6.126
							C335.573,361.825,337.017,362.024,338.022,361.263z"/>
						<path style="fill:#09116D;" d="M346.265,355.017L346.265,355.017c1.005-0.761,1.204-2.206,0.443-3.211l-4.642-6.126
							c-0.761-1.005-2.206-1.204-3.211-0.442l0,0c-1.005,0.761-1.204,2.206-0.443,3.211l4.642,6.126
							C343.816,355.579,345.26,355.778,346.265,355.017z"/>
						<path style="fill:#09116D;" d="M353.288,349.695L353.288,349.695c1.005-0.761,1.204-2.206,0.443-3.211l-4.642-6.126
							c-0.761-1.005-2.206-1.204-3.211-0.443l0,0c-1.005,0.761-1.204,2.206-0.443,3.211l4.642,6.126
							C350.839,350.257,352.284,350.457,353.288,349.695z"/>
					</g>
					
						<line style="fill:#FFFFFF;stroke:#09116D;stroke-width:0.75;stroke-miterlimit:10;" x1="361.91" y1="489.597" x2="363.826" y2="496.724"/>
				</g>
				<path style="fill:none;stroke:#5583FB;stroke-miterlimit:10;" d="M325.645,425.852c4.761-24.329,10.193-0.068,16.713-6.777
					c4.511-14.238,1.442-8.107,11.171-9.177c5.648-9.008,3.728-10.782,13.663-11.462c2.572-3.12,4.287-6.479,8.328-4.272
					c3.598-1.414,4.99-8.227,10.446-6.487"/>
				<path style="fill:none;stroke:#5583FB;stroke-miterlimit:10;" d="M351.44,430.059c2.262-11.93,3.362-8.226,11.953-9.86
					c7.956-5.743,17.808-9.079,25.062-18.668"/>
				<path style="fill:none;stroke:#5583FB;stroke-miterlimit:10;" d="M336.301,438.93c-1.81-12.772,6.921-3.277,8.642-4.032"/>
				<path style="fill:none;stroke:#5583FB;stroke-miterlimit:10;" d="M347.636,452.436c2.902-9.123,4.002-17.989,12.367-7.933
					c7.25,0.418,0.41-11.152,7.243-4.525c2.819-6.039,2.036-9.109,8.701-4.225c6.103-6.292,3.136-8.387,12.077-9.764"/>
				<path style="fill:none;stroke:#5583FB;stroke-miterlimit:10;" d="M361.443,468.017c1.684-28.455,7.175-1.9,11.661-20.63
					c4.973,3.6,3.639-2.207,8.453,0.151c8.145-5.013,5.906-0.744,11.555-9.713"/>
				<path style="fill:none;stroke:#5583FB;stroke-miterlimit:10;" d="M401.621,434.242c13.459-7.465-2.246-10.913,14.896-8.367"/>
			</g>
			<path style="fill:none;stroke:#222848;stroke-width:0.5;stroke-miterlimit:10;" d="M-44.613,383.542
				c17.187-8.516,37.186-14.914,56.537-14.484c14.897,0.331,30.233,5.647,39.966,16.93c22.122,25.644-0.786,61.998-29.637,68.874
				c-25.126,5.988-29.183-20.32-9.776-31.947c22.887-13.712,58.768-10.946,77.288,8.86c10.733,11.478,14.278,28.166,9.809,43.206
				c-5.799,19.517-22.81,35.445-43.288,37.952c-13.26,1.623-23.751-10.466-12.924-21.617c17-17.51,48.458-15.682,69.966-10.774
				c15.718,3.587,37.89,15.827,27.907,35.032"/>
			<path style="fill:none;stroke:#222848;stroke-width:0.5;stroke-miterlimit:10;" d="M575.054,59.52
				c7.149,17.799,11.968,38.236,10.031,57.494c-1.492,14.826-7.987,29.7-19.995,38.524c-27.292,20.054-61.748-5.619-66.353-34.918
				c-4.01-25.517,22.534-27.509,32.612-7.255c11.886,23.887,6.33,59.443-14.86,76.362c-12.28,9.805-29.194,12.038-43.84,6.41
				c-19.006-7.304-33.558-25.505-34.46-46.116c-0.584-13.346,12.286-22.862,22.559-11.199c16.131,18.314,11.855,49.533,5.285,70.593
				c-4.801,15.39-18.734,36.54-37.102,25.09"/>
			<g>
				<polygon style="fill:#09116D;stroke:#09116D;stroke-width:0.75;stroke-miterlimit:10;" points="206.34,480.319 197.998,493.468 
					76.005,404.708 84.347,391.559 				"/>
				<polygon style="fill:#09116D;stroke:#09116D;stroke-width:0.75;stroke-miterlimit:10;" points="76.005,404.708 67.858,386.318 
					84.347,391.559 				"/>
				<polygon style="fill:#5583FB;stroke:#09116D;stroke-width:0.75;stroke-miterlimit:10;" points="207.713,478.659 
					199.371,491.808 77.378,403.047 85.72,389.899 				"/>
				<polygon style="fill:#FAECEE;stroke:#09116D;stroke-width:0.75;stroke-miterlimit:10;" points="77.378,403.047 72.618,394.682 
					67.858,386.318 85.72,389.899 				"/>
				<path style="fill:#5583FB;stroke:#09116D;stroke-width:0.75;stroke-miterlimit:10;" d="M72.143,393.847
					c0,0,4.242-1.103,3.754-5.918l-8.039-1.612L72.143,393.847z"/>
			</g>
			<g>
				<polygon style="fill:#09116D;stroke:#09116D;stroke-width:0.75;stroke-miterlimit:10;" points="243.895,462.174 
					243.909,477.746 93.34,468.28 93.326,452.708 				"/>
				<polygon style="fill:#09116D;stroke:#09116D;stroke-width:0.75;stroke-miterlimit:10;" points="93.34,468.28 76.599,457.13 
					93.326,452.708 				"/>
				<polygon style="fill:#E2737E;stroke:#09116D;stroke-width:0.75;stroke-miterlimit:10;" points="244.163,460.036 
					244.177,475.608 93.608,466.142 93.594,450.57 				"/>
				<polygon style="fill:#FAECEE;stroke:#09116D;stroke-width:0.75;stroke-miterlimit:10;" points="93.608,466.142 85.103,461.636 
					76.599,457.13 93.594,450.57 				"/>
				<path style="fill:#E2737E;stroke:#09116D;stroke-width:0.75;stroke-miterlimit:10;" d="M84.253,461.185
					c0,0,2.988-3.206-0.006-7.008l-7.648,2.952L84.253,461.185z"/>
			</g>
			<path style="fill:none;stroke:#222848;stroke-width:0.5;stroke-miterlimit:10;" d="M226.961-25.515
				c-34.371,21.2-68.741,42.4-103.112,63.6c-13.126,8.096-26.514,16.306-41.466,20.083c-19.937,5.037-41.648,1.6-59.693-8.258
				C4.644,40.052-9.747,24.04-18.811,5.583"/>
		</g>
	</g>
</g>
<g id="TEXTS">
	
		<text transform="matrix(0.9799 -0.1997 0.1997 0.9799 167.1414 127.9236)" style="fill:#09116D; font-family:'Kodchasan-Bold'; font-size:32.9516px;">A+</text>
	<g>
		<g>
			<path style="fill:#E2737E;" d="M107.671,215.742c-0.546-0.259-0.932-0.743-1.155-1.451c-0.62-1.967-1.241-4-1.861-6.077
				c-0.217-0.727-0.182-1.337,0.104-1.818c0.287-0.48,0.792-0.783,1.516-0.914c1.565-0.282,3.13-0.576,4.694-0.887
				c0.302-0.06,0.554-0.039,0.757,0.063c0.203,0.101,0.344,0.277,0.421,0.524c0.075,0.237,0.05,0.439-0.074,0.607
				c-0.124,0.168-0.332,0.282-0.624,0.342c-1.449,0.3-2.898,0.588-4.347,0.869c-0.201,0.039-0.339,0.136-0.415,0.292
				c-0.075,0.154-0.078,0.35-0.006,0.583c0.216,0.707,0.431,1.408,0.647,2.102c1.283-0.283,2.566-0.563,3.849-0.845
				c0.302-0.066,0.555-0.052,0.757,0.041c0.202,0.094,0.343,0.262,0.42,0.5c0.075,0.228,0.05,0.425-0.074,0.592
				c-0.124,0.166-0.332,0.283-0.624,0.35c-1.283,0.296-2.566,0.592-3.849,0.895c0.239,0.758,0.478,1.507,0.717,2.246
				c0.071,0.222,0.184,0.378,0.341,0.472c0.156,0.092,0.335,0.111,0.536,0.058c1.56-0.413,3.119-0.807,4.679-1.195
				c0.302-0.075,0.554-0.07,0.757,0.011c0.203,0.082,0.343,0.236,0.42,0.458c0.075,0.214,0.049,0.402-0.074,0.564
				c-0.124,0.163-0.333,0.28-0.624,0.355c-1.64,0.422-3.28,0.856-4.92,1.319C108.873,216.014,108.218,216.002,107.671,215.742z"/>
			<path style="fill:#E2737E;" d="M117.111,213.744c-0.221-0.098-0.375-0.271-0.461-0.52c-0.605-1.731-1.21-3.529-1.815-5.387
				c-0.09-0.277-0.076-0.508,0.042-0.694c0.117-0.186,0.328-0.314,0.63-0.382c0.302-0.068,0.563-0.045,0.784,0.068
				c0.221,0.113,0.375,0.303,0.461,0.568c0.045,0.137,0.09,0.274,0.135,0.411c0.439-1.006,1.276-1.663,2.514-1.965
				c0.966-0.238,1.822-0.143,2.568,0.282c0.746,0.423,1.28,1.118,1.603,2.068c0.349,1.028,0.698,2.036,1.047,3.023
				c0.087,0.246,0.065,0.462-0.066,0.649c-0.132,0.185-0.349,0.317-0.65,0.395c-0.312,0.08-0.579,0.071-0.799-0.023
				c-0.221-0.095-0.375-0.265-0.461-0.512c-0.349-0.986-0.698-1.994-1.047-3.021c-0.177-0.521-0.456-0.898-0.836-1.123
				c-0.381-0.227-0.824-0.279-1.327-0.155c-0.764,0.187-1.289,0.537-1.573,1.054c-0.285,0.515-0.303,1.144-0.055,1.873
				c0.275,0.807,0.549,1.601,0.824,2.381c0.087,0.248,0.064,0.463-0.067,0.649c-0.132,0.185-0.348,0.315-0.65,0.392
				C117.599,213.851,117.332,213.841,117.111,213.744z"/>
			<path style="fill:#E2737E;" d="M129.402,213.873c-0.73-0.022-1.344-0.153-1.84-0.395c-0.187-0.091-0.311-0.217-0.369-0.379
				c-0.078-0.214-0.027-0.438,0.153-0.673c0.113-0.144,0.256-0.237,0.427-0.283c0.262-0.069,0.599-0.021,1.011,0.142
				c0.309,0.125,0.667,0.192,1.074,0.201c0.406,0.008,0.821-0.044,1.243-0.16c0.785-0.213,1.32-0.585,1.607-1.117
				c0.287-0.534,0.291-1.166,0.014-1.903c-0.067-0.177-0.134-0.355-0.201-0.533c-0.218,0.461-0.526,0.84-0.925,1.138
				c-0.399,0.3-0.93,0.542-1.594,0.725c-1.237,0.343-2.309,0.307-3.212-0.101c-0.904-0.41-1.542-1.149-1.914-2.241
				c-0.372-1.091-0.309-2.059,0.191-2.889c0.5-0.83,1.384-1.43,2.651-1.801c0.523-0.153,1.059-0.203,1.607-0.149
				c0.548,0.054,1.072,0.203,1.572,0.445c-0.031-0.094-0.062-0.189-0.093-0.283c-0.087-0.265-0.064-0.504,0.067-0.713
				c0.132-0.209,0.348-0.363,0.65-0.458c0.302-0.095,0.564-0.096,0.789-0.004c0.224,0.092,0.381,0.277,0.471,0.554
				c0.639,1.964,1.278,3.87,1.917,5.725c0.249,0.721,0.297,1.41,0.145,2.067c-0.152,0.656-0.497,1.229-1.034,1.72
				c-0.537,0.49-1.249,0.853-2.134,1.088C130.89,213.803,130.132,213.895,129.402,213.873z M131.563,208.072
				c0.319-0.492,0.368-1.065,0.148-1.721c-0.22-0.654-0.613-1.104-1.181-1.346c-0.567-0.241-1.243-0.244-2.027-0.014
				c-0.735,0.214-1.246,0.567-1.535,1.055c-0.289,0.489-0.322,1.059-0.102,1.706c0.22,0.648,0.599,1.091,1.135,1.336
				c0.536,0.244,1.172,0.263,1.907,0.056C130.694,208.92,131.244,208.563,131.563,208.072z"/>
			<path style="fill:#E2737E;" d="M136.747,208.422c-0.221-0.091-0.375-0.264-0.461-0.52c-1.007-2.951-2.014-6.021-3.021-9.243
				c-0.087-0.277-0.07-0.525,0.052-0.743c0.121-0.217,0.338-0.381,0.65-0.488c0.302-0.104,0.567-0.105,0.799-0.008
				c0.23,0.098,0.39,0.287,0.477,0.565c1.007,3.232,2.013,6.317,3.02,9.292c0.087,0.257,0.065,0.488-0.067,0.691
				c-0.131,0.202-0.348,0.352-0.65,0.446C137.234,208.511,136.968,208.513,136.747,208.422z"/>
			<path style="fill:#E2737E;" d="M137.815,199.005c-0.29-0.122-0.486-0.346-0.588-0.671c-0.102-0.327-0.072-0.633,0.09-0.919
				c0.162-0.284,0.431-0.494,0.803-0.627c0.372-0.134,0.708-0.142,1.009-0.024c0.3,0.121,0.502,0.344,0.604,0.672
				c0.103,0.327,0.067,0.635-0.105,0.923c-0.173,0.288-0.446,0.497-0.818,0.63C138.436,199.121,138.105,199.127,137.815,199.005z
				 M140.686,207.162c-0.22-0.091-0.375-0.266-0.461-0.525c-0.605-1.803-1.21-3.641-1.815-5.525
				c-0.087-0.27-0.069-0.513,0.052-0.729c0.122-0.215,0.338-0.38,0.65-0.49c0.302-0.107,0.568-0.114,0.799-0.024
				c0.231,0.091,0.39,0.273,0.477,0.544c0.605,1.892,1.21,3.741,1.815,5.559c0.087,0.262,0.064,0.498-0.067,0.707
				c-0.132,0.208-0.348,0.364-0.65,0.464C141.173,207.248,140.908,207.253,140.686,207.162z"/>
			<path style="fill:#E2737E;" d="M143.785,204.91c-0.226-0.142-0.365-0.292-0.418-0.453c-0.074-0.226-0.014-0.469,0.182-0.729
				c0.136-0.165,0.285-0.277,0.447-0.335c0.221-0.079,0.457-0.063,0.707,0.05c0.448,0.2,0.858,0.31,1.23,0.331
				c0.372,0.02,0.8-0.059,1.283-0.236c0.413-0.15,0.742-0.329,0.99-0.541c0.248-0.207,0.346-0.391,0.297-0.544
				c-0.062-0.192-0.23-0.312-0.505-0.36c-0.275-0.048-0.799-0.047-1.571,0.001c-1.213,0.082-2.108,0.023-2.687-0.168
				c-0.579-0.191-0.955-0.555-1.129-1.097c-0.196-0.609-0.078-1.189,0.354-1.742c0.432-0.552,1.125-1.009,2.082-1.37
				c0.734-0.277,1.432-0.42,2.095-0.431c0.661-0.011,1.186,0.113,1.572,0.371c0.184,0.118,0.302,0.258,0.354,0.425
				c0.075,0.235,0.014,0.472-0.181,0.712c-0.137,0.173-0.296,0.293-0.477,0.362c-0.292,0.112-0.597,0.096-0.912-0.046
				c-0.26-0.109-0.564-0.152-0.912-0.13c-0.348,0.023-0.709,0.103-1.081,0.243c-0.704,0.264-1.006,0.555-0.903,0.875
				c0.04,0.126,0.131,0.218,0.273,0.274c0.142,0.056,0.373,0.083,0.694,0.083c0.321,0,0.817-0.023,1.49-0.07
				c1.079-0.079,1.873-0.022,2.383,0.176c0.509,0.198,0.855,0.582,1.038,1.152c0.196,0.609,0.061,1.207-0.403,1.794
				c-0.464,0.586-1.224,1.071-2.281,1.452C146.175,205.54,144.838,205.515,143.785,204.91z"/>
			<path style="fill:#E2737E;" d="M152.55,202.942c-0.221-0.09-0.375-0.27-0.461-0.542c-1.007-3.135-2.013-6.298-3.02-9.551
				c-0.087-0.28-0.069-0.535,0.052-0.762c0.121-0.227,0.338-0.402,0.649-0.523c0.302-0.117,0.569-0.128,0.799-0.038
				c0.231,0.09,0.39,0.276,0.477,0.556c0.447,1.441,0.894,2.866,1.34,4.281c0.23-0.598,0.542-1.094,0.938-1.488
				c0.396-0.394,0.901-0.711,1.515-0.953c0.966-0.38,1.823-0.379,2.568-0.005c0.747,0.375,1.281,1.071,1.603,2.089
				c0.349,1.102,0.698,2.203,1.047,3.308c0.086,0.275,0.064,0.528-0.067,0.756c-0.131,0.227-0.348,0.4-0.65,0.518
				c-0.312,0.122-0.579,0.137-0.799,0.048c-0.22-0.09-0.375-0.273-0.462-0.547c-0.349-1.101-0.698-2.202-1.047-3.303
				c-0.177-0.558-0.456-0.939-0.836-1.141c-0.381-0.203-0.824-0.207-1.327-0.009c-0.765,0.301-1.289,0.752-1.574,1.355
				c-0.285,0.601-0.303,1.293-0.054,2.073c0.274,0.863,0.549,1.724,0.823,2.583c0.087,0.273,0.065,0.521-0.066,0.746
				c-0.132,0.223-0.348,0.393-0.65,0.507C153.037,203.018,152.771,203.032,152.55,202.942z"/>
			<path style="fill:#5583FB;" d="M166.179,197.644c-0.221-0.091-0.374-0.275-0.461-0.551c-1.007-3.195-2.013-6.334-3.02-9.482
				c-0.087-0.271-0.069-0.517,0.052-0.735c0.121-0.217,0.337-0.385,0.65-0.499c0.302-0.11,0.568-0.118,0.799-0.032
				c0.231,0.089,0.389,0.268,0.477,0.537c1.007,3.122,2.013,6.247,3.02,9.44c0.087,0.276,0.065,0.528-0.066,0.756
				c-0.132,0.228-0.349,0.402-0.65,0.519C166.665,197.72,166.4,197.734,166.179,197.644z"/>
			<path style="fill:#5583FB;" d="M171.376,195.386c-0.74-0.06-1.37-0.299-1.894-0.72c-0.523-0.419-0.901-0.998-1.138-1.737
				c-0.381-1.194-0.319-2.251,0.19-3.17c0.509-0.919,1.416-1.612,2.725-2.078c0.805-0.286,1.556-0.417,2.252-0.399
				c0.697,0.019,1.287,0.178,1.772,0.477c0.485,0.296,0.816,0.713,0.993,1.251c0.149,0.454,0.11,0.859-0.116,1.216
				c-0.226,0.357-0.621,0.636-1.185,0.839c-1.514,0.545-3.029,1.105-4.543,1.675c0.174,0.543,0.504,0.88,0.989,1.007
				c0.486,0.129,1.116,0.047,1.891-0.242c0.815-0.303,1.454-0.735,1.915-1.29c0.26-0.311,0.48-0.498,0.662-0.563
				c0.171-0.062,0.362-0.043,0.573,0.053c0.224,0.103,0.367,0.251,0.429,0.445c0.074,0.231,0.033,0.451-0.125,0.66
				c-0.323,0.462-0.741,0.882-1.251,1.255c-0.511,0.374-1.089,0.682-1.732,0.923C172.919,195.313,172.116,195.447,171.376,195.386z
				 M173.945,189.964c0.171-0.061,0.282-0.137,0.331-0.224c0.05-0.087,0.052-0.202,0.006-0.344c-0.109-0.332-0.393-0.522-0.852-0.57
				c-0.459-0.047-1.026,0.049-1.701,0.292c-0.674,0.243-1.161,0.57-1.461,0.981c-0.301,0.411-0.378,0.843-0.232,1.297
				C171.339,190.91,172.642,190.431,173.945,189.964z"/>
			<path style="fill:#5583FB;" d="M178.634,191.71c-0.226-0.146-0.366-0.302-0.419-0.465c-0.074-0.23-0.014-0.474,0.182-0.735
				c0.137-0.164,0.285-0.274,0.447-0.329c0.221-0.077,0.457-0.056,0.707,0.06c0.448,0.207,0.857,0.324,1.23,0.353
				c0.372,0.027,0.8-0.041,1.283-0.202c0.412-0.137,0.743-0.304,0.99-0.502c0.247-0.196,0.347-0.37,0.297-0.521
				c-0.062-0.189-0.23-0.313-0.505-0.37c-0.275-0.057-0.799-0.075-1.571-0.049c-1.212,0.045-2.109-0.025-2.687-0.222
				c-0.579-0.196-0.956-0.556-1.129-1.08c-0.196-0.589-0.077-1.14,0.353-1.65c0.432-0.511,1.126-0.917,2.082-1.219
				c0.735-0.232,1.433-0.337,2.095-0.319c0.662,0.016,1.186,0.152,1.572,0.404c0.183,0.115,0.302,0.249,0.354,0.404
				c0.074,0.218,0.014,0.433-0.181,0.645c-0.137,0.154-0.295,0.259-0.477,0.315c-0.292,0.091-0.596,0.063-0.912-0.08
				c-0.261-0.112-0.564-0.163-0.912-0.154c-0.349,0.008-0.708,0.072-1.081,0.192c-0.704,0.226-1.005,0.494-0.903,0.8
				c0.04,0.12,0.131,0.21,0.272,0.267c0.142,0.056,0.373,0.088,0.694,0.096c0.321,0.01,0.817,0.002,1.49-0.02
				c1.079-0.037,1.873,0.052,2.383,0.263c0.509,0.21,0.855,0.591,1.038,1.147c0.196,0.595,0.061,1.169-0.403,1.726
				c-0.464,0.556-1.224,1.011-2.281,1.366C181.024,192.374,179.687,192.34,178.634,191.71z"/>
			<path style="fill:#5583FB;" d="M186.875,188.992c-0.227-0.15-0.365-0.304-0.418-0.464c-0.075-0.225-0.014-0.46,0.182-0.706
				c0.137-0.154,0.285-0.256,0.447-0.304c0.221-0.066,0.457-0.04,0.708,0.081c0.447,0.215,0.857,0.343,1.23,0.384
				c0.371,0.039,0.799-0.012,1.282-0.151c0.412-0.118,0.742-0.268,0.99-0.451c0.249-0.181,0.346-0.346,0.297-0.496
				c-0.062-0.186-0.231-0.312-0.505-0.377c-0.275-0.065-0.799-0.1-1.571-0.101c-1.212,0.004-2.109-0.094-2.687-0.3
				c-0.579-0.206-0.956-0.565-1.13-1.073c-0.195-0.571-0.077-1.096,0.354-1.573c0.431-0.477,1.125-0.848,2.081-1.113
				c0.734-0.203,1.433-0.286,2.095-0.253c0.663,0.032,1.186,0.177,1.573,0.432c0.183,0.117,0.302,0.249,0.354,0.401
				c0.075,0.213,0.014,0.419-0.181,0.619c-0.138,0.145-0.296,0.241-0.477,0.29c-0.293,0.079-0.596,0.043-0.912-0.105
				c-0.26-0.116-0.564-0.174-0.912-0.176c-0.348-0.002-0.708,0.049-1.081,0.154c-0.704,0.197-1.006,0.446-0.903,0.743
				c0.04,0.117,0.131,0.206,0.273,0.265c0.142,0.059,0.373,0.096,0.694,0.114c0.321,0.019,0.818,0.027,1.49,0.027
				c1.079-0.001,1.873,0.111,2.382,0.333c0.51,0.221,0.855,0.604,1.039,1.152c0.196,0.586,0.061,1.141-0.403,1.665
				c-0.464,0.523-1.225,0.935-2.281,1.241C189.264,189.718,187.929,189.637,186.875,188.992z"/>
			<path style="fill:#5583FB;" d="M197.326,187.024c-0.777-0.127-1.447-0.413-2.009-0.854c-0.563-0.44-0.962-1.01-1.197-1.702
				c-0.236-0.691-0.252-1.342-0.05-1.957c0.202-0.614,0.594-1.143,1.176-1.591c0.581-0.449,1.309-0.782,2.185-1.002
				c0.876-0.22,1.702-0.278,2.479-0.169c0.777,0.108,1.446,0.372,2.009,0.801c0.562,0.43,0.96,0.996,1.197,1.699
				c0.236,0.705,0.253,1.381,0.05,2.017c-0.203,0.636-0.594,1.185-1.176,1.64c-0.582,0.457-1.31,0.787-2.186,0.996
				C198.929,187.111,198.104,187.152,197.326,187.024z M200.969,184.428c0.323-0.479,0.376-1.052,0.155-1.705
				c-0.22-0.652-0.616-1.099-1.188-1.35c-0.572-0.249-1.246-0.275-2.021-0.082c-0.775,0.194-1.323,0.524-1.647,0.993
				c-0.324,0.472-0.375,1.025-0.155,1.67c0.22,0.647,0.617,1.104,1.189,1.363c0.571,0.259,1.246,0.296,2.02,0.109
				C200.095,185.24,200.645,184.907,200.969,184.428z"/>
			<path style="fill:#5583FB;" d="M205.723,185.317c-0.221-0.119-0.375-0.313-0.462-0.584c-0.605-1.88-1.21-3.702-1.815-5.457
				c-0.09-0.261-0.076-0.481,0.042-0.662c0.118-0.181,0.328-0.312,0.629-0.39c0.302-0.078,0.563-0.068,0.784,0.031
				c0.221,0.1,0.374,0.277,0.461,0.532c0.045,0.132,0.09,0.265,0.135,0.398c0.438-0.997,1.276-1.663,2.514-2.012
				c0.966-0.272,1.822-0.217,2.568,0.206c0.746,0.42,1.28,1.152,1.603,2.195c0.349,1.128,0.698,2.274,1.047,3.437
				c0.087,0.29,0.064,0.538-0.067,0.742c-0.131,0.203-0.348,0.336-0.649,0.398c-0.313,0.064-0.579,0.031-0.799-0.096
				c-0.221-0.128-0.374-0.333-0.461-0.616c-0.349-1.137-0.698-2.257-1.047-3.357c-0.177-0.557-0.457-0.951-0.837-1.183
				c-0.381-0.232-0.823-0.278-1.326-0.145c-0.765,0.201-1.289,0.56-1.574,1.081c-0.284,0.52-0.302,1.152-0.054,1.91
				c0.275,0.84,0.549,1.692,0.824,2.555c0.087,0.274,0.065,0.51-0.067,0.705c-0.131,0.194-0.348,0.324-0.65,0.389
				C206.209,185.462,205.943,185.434,205.723,185.317z"/>
		</g>
	</g>
	<g>
		
			<text transform="matrix(0.797 -0.6039 0.6039 0.797 312.8535 409.7408)" style="fill:#09116D; font-family:'Kodchasan-Bold'; font-size:15.7946px;">Notes:</text>
	</g>
</g>
</svg>
